<svg id="Слой_1" data-name="Слой 1" xmlns="http://www.w3.org/2000/svg" viewBox="0 0 50 50"><defs><style>.cls-1{fill:#8eb4b4;}</style></defs><path class="cls-1" d="M6,36.93a1.48,1.48,0,0,0-1.46,1.48,1.46,1.46,0,0,0,1,1.37,5.11,5.11,0,0,0,0,4.45l.09.19a5.12,5.12,0,1,0,9.3-4.3l-.14-.27H24a5.13,5.13,0,1,0,9.27,0h2.14a4.6,4.6,0,1,0,.14-9.2L42.22,6a.6.6,0,0,1,.59-.44h5.87a1.47,1.47,0,0,0-.3-2.93H42.81a3.54,3.54,0,0,0-3.39,2.61l-1.74,6.45-34.8.13a2.72,2.72,0,0,0-.63.08h0A2.93,2.93,0,0,0,.08,15.4h0L3.6,30.79a3.65,3.65,0,0,0,3.53,2.83h28.3a1.64,1.64,0,0,1,1.65,1.64,1.66,1.66,0,0,1-1.64,1.65h0Zm20.54,5.12a2.2,2.2,0,0,1,2.18-2.2h0A2.2,2.2,0,1,1,26.47,42ZM10.09,44.22a2.2,2.2,0,0,1,0-4.39h.07a2.2,2.2,0,0,1,0,4.39ZM2.86,14.67H8.55l.85,6.55h-5L2.86,14.73h0Zm10.76,16-.86-6.54h5.18V30.7Zm7.26,0V24.16h5.19l-.81,6.54Zm7.28,0L29,24.16h5.28l-1.6,6a.77.77,0,0,1-.77.58Zm-7.28-9.48V14.63h6.47l-.88,6.61Zm-8.5,0-.87-6.56h6.43v6.58Zm24.55-6.63L35.1,21.24H29.42l.88-6.62ZM7.1,30.7a.7.7,0,0,1-.7-.56L5,24.16H9.77l.87,6.54H7.1Z"/></svg>