<svg id="Слой_1" data-name="Слой 1" xmlns="http://www.w3.org/2000/svg" viewBox="0 0 50 50"><defs><style>.cls-1{fill:#0072b9;}</style></defs><path class="cls-1" d="M50,12.69a5.64,5.64,0,0,0-5.63-5.63H5.63A5.64,5.64,0,0,0,0,12.69V36.87A5.64,5.64,0,0,0,5.63,42.5H44.37A5.64,5.64,0,0,0,50,36.87V12.69ZM5.63,10.47H44.37a2.23,2.23,0,0,1,2.22,2.22V15.8H3.41V12.69A2.23,2.23,0,0,1,5.63,10.47Zm41,14.06H3.41V19.21H46.59v5.32ZM44.37,39.09H5.63a2.23,2.23,0,0,1-2.22-2.22V27.94H46.59v8.93A2.23,2.23,0,0,1,44.37,39.09Z"/><path class="cls-1" d="M19.18,33.27H7.53a1.71,1.71,0,1,0,0,3.41H19.18a1.71,1.71,0,0,0,0-3.41Z"/></svg>