<svg id="Слой_1" data-name="Слой 1" xmlns="http://www.w3.org/2000/svg" viewBox="0 0 50 50"><defs><style>.cls-1{fill:#0072b9;}</style></defs><path class="cls-1" d="M25,50A25,25,0,1,1,50,25v2.79a9.13,9.13,0,0,1-8.83,9.43H41A8.94,8.94,0,0,1,34.11,34a.51.51,0,0,0-.4-.2h0a.6.6,0,0,0-.39.16A12.22,12.22,0,1,1,33,15.86a.51.51,0,0,0,.37.15h3.84v12.2A3.77,3.77,0,0,0,41,32h0a3.85,3.85,0,0,0,3.78-3.94,1.27,1.27,0,0,0,0-.2V25A19.76,19.76,0,1,0,34.43,42.37l2.63,4.54A24.82,24.82,0,0,1,25,50Zm0-32a7,7,0,1,0,7,7,7,7,0,0,0-7-7Z"/></svg>