<svg id="Слой_1" data-name="Слой 1" xmlns="http://www.w3.org/2000/svg" viewBox="0 0 50 50"><defs><style>.cls-1{fill:#8eb4b4;}</style></defs><path class="cls-1" d="M49.51,13a12.2,12.2,0,0,0-1.32-3.24A11.43,11.43,0,0,0,46,6.94,13.23,13.23,0,0,0,31.58,4.05a14.31,14.31,0,0,0-4.15,2.67l-.17.22L24.94,9.25,22.67,6.91,22.5,6.7A14.64,14.64,0,0,0,18.36,4,13.41,13.41,0,0,0,8.21,4,13.67,13.67,0,0,0,3.9,6.91,12.67,12.67,0,0,0,.42,13,13.46,13.46,0,0,0,0,16.52a13.63,13.63,0,0,0,.42,3.36,14.18,14.18,0,0,0,1.3,3.18,12.78,12.78,0,0,0,2.15,2.81L25,47,46.09,25.87a12.26,12.26,0,0,0,2.15-2.81A12.83,12.83,0,0,0,50,16.52,13.53,13.53,0,0,0,49.51,13Zm-3.57,5.82a9.6,9.6,0,0,1-2.46,4.31L24.83,41.66,6.23,23.09a10.41,10.41,0,0,1-1.58-2,10.71,10.71,0,0,1-1-2.32,11.88,11.88,0,0,1-.29-2.45,12.68,12.68,0,0,1,.29-2.54A9.38,9.38,0,0,1,6.23,9.43,10.31,10.31,0,0,1,9.4,7.27,9.72,9.72,0,0,1,20,9.37l4.85,4.9,4.85-4.9a9.82,9.82,0,0,1,3.15-2.1,9.94,9.94,0,0,1,7.43,0,10.43,10.43,0,0,1,3.17,2.16,7.37,7.37,0,0,1,1.54,2,11.21,11.21,0,0,1,1.08,7.37Z"/></svg>