<svg id="G_Pay_Acceptance_Mark" data-name="G Pay Acceptance Mark" xmlns="http://www.w3.org/2000/svg" viewBox="0 0 523 205.2"><defs><style>.cls-1{fill:#fff;}.cls-2{fill:#4285f4;}.cls-3{fill:#34a853;}.cls-4{fill:#fabb05;}.cls-5{fill:#e94235;}</style></defs><g id="G_Pay_Lockup" data-name="G Pay Lockup"><g id="Pay_Typeface" data-name="Pay Typeface"><path id="Letter_p" data-name="Letter p" class="cls-1" d="M244.1,99.8v60.5H224.9V10.9h50.9c12.9,0,23.9,4.3,32.9,12.9q13.8,12.9,13.8,31.5A41.3,41.3,0,0,1,308.7,87c-8.9,8.5-19.9,12.7-32.9,12.7H244.1Zm0-70.5V81.4h32.1a25.62,25.62,0,0,0,19-7.7,25.19,25.19,0,0,0,7.7-18.3,24.9,24.9,0,0,0-7.7-18.1c-5-5.3-11.3-7.9-19-7.9H244.1Z"/><path id="Letter_a" data-name="Letter a" class="cls-1" d="M372.7,54.73q21.3,0,33.6,11.4t12.3,31.2v63H400.3v-14.2h-.8c-7.9,11.7-18.5,17.5-31.7,17.5-11.3,0-20.7-3.3-28.3-10a32,32,0,0,1-11.4-25q0-15.9,12-25.2c8-6.3,18.7-9.4,32-9.4,11.4,0,20.8,2.1,28.1,6.3v-4.4c0-6.7-2.6-12.3-7.9-17a27.11,27.11,0,0,0-18.6-7c-10.7,0-19.2,4.5-25.4,13.6l-16.9-10.6Q345.35,54.65,372.7,54.73Zm-24.8,74.2a15.17,15.17,0,0,0,6.4,12.5,23.52,23.52,0,0,0,14.9,5q12.15,0,21.6-9c6.3-6,9.5-13,9.5-21.1-6-4.7-14.3-7.1-25-7.1-7.8,0-14.3,1.9-19.5,5.6-5.3,3.9-7.9,8.57-7.9,14.07Z"/><path id="Letter_y" data-name="Letter y" class="cls-1" d="M523,58,459,205.2H439.2L463,153.7,420.8,58h20.9l30.4,73.4h.4L502.1,58Z"/></g><g id="G_Mark" data-name="G Mark"><path id="Blue_500" data-name="Blue 500" class="cls-2" d="M167.73,87.6a100.56,100.56,0,0,0-1.6-18H85.63v33H132a39.7,39.7,0,0,1-17.2,26.58v21.41h27.59C158.5,135.73,167.73,113.64,167.73,87.6Z"/><path id="Green_500" data-name="Green 500" class="cls-3" d="M114.81,129.18c-7.68,5.18-17.57,8.21-29.14,8.21-22.35,0-41.31-15.06-48.1-35.36H9.11v22.08a85.68,85.68,0,0,0,76.52,47.18c23.14,0,42.58-7.61,56.73-20.71Z"/><path id="Yellow_500" data-name="Yellow 500" class="cls-4" d="M34.89,85.65a51.6,51.6,0,0,1,2.68-16.39V47.18H9.11a85.78,85.78,0,0,0,0,76.94L37.57,102A51.6,51.6,0,0,1,34.89,85.65Z"/><path id="Red_500" data-name="Red 500" class="cls-5" d="M85.63,33.9a46.58,46.58,0,0,1,32.91,12.83L143,22.3C128.14,8.49,108.78,0,85.63,0A85.69,85.69,0,0,0,9.07,47.18L37.53,69.26C44.36,49,63.32,33.9,85.63,33.9Z"/></g></g></svg>