<svg id="Слой_1" data-name="Слой 1" xmlns="http://www.w3.org/2000/svg" viewBox="0 0 359 147.05"><defs><style>.cls-1{fill:#00b1d6;}.cls-2{fill:#0072b9;}.cls-3{fill:#fff;}</style></defs><path class="cls-1" d="M360.88,465.55v71.31a5.31,5.31,0,0,0,2.82,4.69,4.11,4.11,0,0,0,.51.27l155.47,66.69a50.5,50.5,0,0,0,39.84,0l156.11-67,1.17-.5,0,0a5.27,5.27,0,0,0,3-4.87V465.55Z" transform="translate(-360.88 -465.55)"/><path class="cls-2" d="M579.42,539.79l-67.63-39a2.45,2.45,0,0,0-3.68,2.13V581a2.46,2.46,0,0,0,3.68,2.13L579.42,544A2.45,2.45,0,0,0,579.42,539.79Z" transform="translate(-360.88 -465.55)"/><polygon class="cls-3" points="149.15 74.18 144.01 56.18 139.57 56.18 134.62 74.18 138.27 74.18 141.65 60.06 145.22 74.18 149.15 74.18"/><polygon class="cls-3" points="154.53 72.33 158.53 65.33 159.16 64.15 159.15 64.86 159.15 74.18 163.1 74.18 163.1 56.18 159.15 56.18 159.15 58.17 155.12 65.19 154.53 66.28 154.53 56.18 150.57 56.18 150.57 74.18 154.53 74.18 154.53 72.33"/><polygon class="cls-3" points="170.46 59.56 174.78 59.56 174.78 74.18 178.74 74.18 178.74 56.18 166.5 56.18 166.5 74.18 170.46 74.18 170.46 59.56"/><polygon class="cls-3" points="193.08 70.96 186.09 70.96 186.09 66.53 191.52 66.53 191.52 63.45 186.09 63.45 186.09 59.27 193.08 59.27 193.08 56.18 182.14 56.18 182.14 74.18 193.08 74.18 193.08 70.96"/><polygon class="cls-3" points="207.15 77.83 210.07 77.83 210.07 70.81 207.38 70.81 207.38 56.18 203.43 56.18 203.43 70.81 199.1 70.81 199.1 56.18 195.15 56.18 195.15 74.18 206.79 74.18 207.15 77.83"/><polygon class="cls-3" points="219.48 62.8 223.99 56.18 219.99 56.18 215.62 63.69 215.62 56.18 211.67 56.18 211.67 74.18 215.62 74.18 215.62 68.06 217.12 65.89 220.28 74.18 224.38 74.18 219.48 62.8"/><path class="cls-3" d="M511.9,550a6.22,6.22,0,0,0-5,2.27A8.52,8.52,0,0,0,505,558a5.94,5.94,0,0,0,1.67,4.32,5.62,5.62,0,0,0,4.21,1.71,6.21,6.21,0,0,0,4.91-2.26,8.1,8.1,0,0,0,2-5.48,6.43,6.43,0,0,0-1.61-4.54A5.54,5.54,0,0,0,511.9,550Zm1.32,9.18c-.41,1.49-1.16,2.24-2.26,2.24-1.34,0-2-.85-2-2.54a14,14,0,0,1,.64-4.23c.42-1.37,1.18-2,2.29-2,1.3,0,2,.84,2,2.54A15.68,15.68,0,0,1,513.22,559.2Z" transform="translate(-360.88 -465.55)"/><path class="cls-3" d="M528.54,550.11q-2.56,0-4,2.78l.43-2.54H521.3l-2.24,13.41h3.88l1.11-6.63a12.91,12.91,0,0,1,.54-2.37,2.72,2.72,0,0,1,.88-1.24,2.09,2.09,0,0,1,1.33-.48,1.23,1.23,0,0,1,1.38,1.41,12.54,12.54,0,0,1-.19,1.48l-1.31,7.83h3.86l1.27-7.54a18.29,18.29,0,0,0,.31-2.5,3.54,3.54,0,0,0-1-2.59A3.43,3.43,0,0,0,528.54,550.11Z" transform="translate(-360.88 -465.55)"/><polygon class="cls-3" points="172.91 98.2 176.78 98.2 179.79 80.21 175.91 80.21 172.91 98.2"/><polygon class="cls-3" points="182.42 83.78 186.46 83.78 187.09 79.97 183.06 79.97 182.42 83.78"/><polygon class="cls-3" points="180.01 98.2 184.05 98.2 186.29 84.79 182.25 84.79 180.01 98.2"/><path class="cls-3" d="M557.64,550.11q-2.57,0-4,2.78l.42-2.54H550.4l-2.24,13.41H552l1.11-6.63a14.85,14.85,0,0,1,.54-2.37,2.74,2.74,0,0,1,.89-1.24,2.07,2.07,0,0,1,1.33-.48,1.23,1.23,0,0,1,1.38,1.41,13.57,13.57,0,0,1-.2,1.48l-1.3,7.83h3.86l1.27-7.54a19.47,19.47,0,0,0,.3-2.5,3.58,3.58,0,0,0-1-2.59A3.47,3.47,0,0,0,557.64,550.11Z" transform="translate(-360.88 -465.55)"/><path class="cls-3" d="M570.2,550.06a6.3,6.3,0,0,0-5.15,2.4,8.42,8.42,0,0,0-1.94,5.45,6.16,6.16,0,0,0,1.65,4.46,5.65,5.65,0,0,0,4.29,1.72,6.37,6.37,0,0,0,3.92-1.21,6.5,6.5,0,0,0,2.28-3.14l-3.3-.56a2.77,2.77,0,0,1-2.67,2.14,2.18,2.18,0,0,1-1.61-.66,2.61,2.61,0,0,1-.66-1.95c0-.22,0-.55.08-1h8.66a13.15,13.15,0,0,0,.13-1.61,6.38,6.38,0,0,0-1.49-4.31A5.24,5.24,0,0,0,570.2,550.06Zm2,5.44h-4.83c.43-2,1.38-3,2.86-3a2,2,0,0,1,1.44.57,2.09,2.09,0,0,1,.6,1.61A4.73,4.73,0,0,1,572.2,555.5Z" transform="translate(-360.88 -465.55)"/></svg>