<?xml version="1.0" encoding="utf-8"?>
<!-- Generator: Adobe Illustrator 24.1.2, SVG Export Plug-In . SVG Version: 6.00 Build 0)  -->
<svg version="1.1" id="Слой_1" xmlns="http://www.w3.org/2000/svg" xmlns:xlink="http://www.w3.org/1999/xlink" x="0px" y="0px"
	 viewBox="0 0 359.4 190" style="enable-background:new 0 0 359.4 190;" xml:space="preserve">
<style type="text/css">
	.st0{fill:#4B269B;}
	.st1{fill:#399BC6;}
	.st2{fill:#4C24BA;}
	.st3{fill:#40455D;}
	.st4{fill:#876BB2;}
	.st5{fill:#A8A7AB;}
	.st6{fill:#836894;}
	.st7{fill:#877085;}
	.st8{fill:#00B1D6;}
	.st9{fill:#80BEBF;}
	.st10{fill:#FFFFFF;}
</style>
<circle class="st0" cx="18.3" cy="86.5" r="18.3"/>
<circle class="st1" cx="40.2" cy="37.6" r="16"/>
<circle class="st2" cx="97" cy="52.8" r="12.9"/>
<circle class="st1" cx="122.5" cy="31.2" r="2.3"/>
<circle class="st3" cx="60.1" cy="16" r="3.8"/>
<circle class="st4" cx="66.2" cy="70.8" r="2.3"/>
<circle class="st5" cx="136.2" cy="52.5" r="2.3"/>
<circle class="st6" cx="92.8" cy="13.7" r="9.1"/>
<circle class="st7" cx="171.9" cy="32" r="7.6"/>
<circle class="st8" cx="197.8" cy="36.5" r="3"/>
<circle class="st9" cx="220.6" cy="41.1" r="9.1"/>
<circle class="st2" cx="212.9" cy="13.8" r="3"/>
<ellipse class="st1" cx="270.2" cy="47.6" rx="16" ry="16"/>
<ellipse transform="matrix(0.2076 -0.9782 0.9782 0.2076 196.1664 252.7643)" class="st9" cx="254.1" cy="5.3" rx="5.3" ry="5.3"/>
<circle class="st6" cx="343.8" cy="93.3" r="15.2"/>
<circle class="st5" cx="307.4" cy="70" r="6.1"/>
<circle class="st8" cx="313.4" cy="24" r="4.6"/>
<circle class="st4" cx="336.3" cy="51.3" r="3"/>
<path class="st10" d="M18.3,77.8c-3.3,0-6,2.7-6,6c0,3.5,1.9,7.2,5.5,11c0.1,0.1,0.3,0.2,0.5,0.2s0.4-0.1,0.5-0.2
	c3.6-3.8,5.5-7.5,5.5-11C24.3,80.5,21.6,77.8,18.3,77.8z M18.3,93.3c-3-3.3-4.5-6.5-4.5-9.5c0-2.5,2-4.5,4.5-4.5s4.6,2,4.6,4.5
	C22.8,86.8,21.3,90,18.3,93.3z"/>
<path class="st10" d="M18.3,82.2c-0.9,0-1.6,0.7-1.6,1.6s0.7,1.6,1.6,1.6s1.6-0.7,1.6-1.6l0,0C19.9,83,19.1,82.2,18.3,82.2z"/>
<path class="st10" d="M38.7,28.1l0.1,0.2c0.3,0.7,0.3,1.4,0,2.1c-0.6,1.5-2.2,2.2-3.7,1.7c-0.6-0.2-1.1-0.6-1.4-1.2l-0.1-0.2l-2,1
	l8.2,16.4l9.3-4.6l-8.3-16.4L38.7,28.1z M42.7,32.2l-0.3,0.1l0.3,0.5l0.3-0.1l5.3,10.6L40,47.4l-5.3-10.5l0.3-0.1l-0.3-0.5l-0.3,0.1
	L32.2,32l1.1-0.5c1.1,1.5,3.3,1.9,4.8,0.8c0.5-0.4,1-0.9,1.2-1.6c0.3-0.7,0.3-1.5,0.1-2.2l1.1-0.5L42.7,32.2L42.7,32.2z"/>
<rect x="35.3" y="35.8" transform="matrix(0.8943 -0.4474 0.4474 0.8943 -12.3908 19.7483)" class="st10" width="0.6" height="0.6"/>
<rect x="36.4" y="35.3" transform="matrix(0.8943 -0.4474 0.4474 0.8943 -12.0359 20.1837)" class="st10" width="0.6" height="0.6"/>
<rect x="37.4" y="34.8" transform="matrix(0.8943 -0.4474 0.4474 0.8943 -11.7111 20.5848)" class="st10" width="0.6" height="0.6"/>
<rect x="38.4" y="34.2" transform="matrix(0.8943 -0.4474 0.4474 0.8943 -11.3485 20.9545)" class="st10" width="0.6" height="0.6"/>
<rect x="39.4" y="33.7" transform="matrix(0.8943 -0.4474 0.4474 0.8943 -11.0254 21.3543)" class="st10" width="0.6" height="0.6"/>
<rect x="40.5" y="33.2" transform="matrix(0.8943 -0.4474 0.4474 0.8943 -10.6695 21.7918)" class="st10" width="0.6" height="0.6"/>
<rect x="41.5" y="32.7" transform="matrix(0.8943 -0.4474 0.4474 0.8943 -10.3457 22.1908)" class="st10" width="0.6" height="0.6"/>
<path class="st10" d="M277.2,53.1h-2.5l-0.8-1.4c0.2,0.1,0.3,0.3,0.5,0.3c0.1,0,0.3,0.1,0.4,0.1c0.2,0,0.5-0.1,0.7-0.2l0.5-0.3
	c0.7-0.4,0.9-1.2,0.6-1.9l-0.3-0.5c-0.2-0.3-0.5-0.6-0.8-0.7c-0.1,0-0.3-0.1-0.4-0.1c-0.2,0-0.5,0.1-0.7,0.2l-0.5,0.3
	c-0.5,0.3-0.8,0.9-0.7,1.5l-0.1-0.2l-0.1-0.1c0,0,0-0.1-0.1-0.1l0,0c-0.2-0.3-0.5-0.5-0.8-0.6l-0.5-0.2l0.4-0.3l0.1-0.1
	c0.4-0.5,0.4-1.2,0-1.7l0,0l-3.7-3.5l-0.1-0.1l0,0l0,0l0,0l-0.5-0.4l0.6-0.2c0.2,0,0.4-0.1,0.5-0.2c0.3-0.2,0.5-0.5,0.6-0.9l0.1-0.6
	c0.1-0.8-0.4-1.5-1.2-1.6l0,0l-0.6-0.1c-0.1,0-0.1,0-0.2,0c-0.7,0-1.3,0.5-1.4,1.2l-0.1,0.6c0,0.4,0,0.7,0.3,1
	c0.1,0.1,0.2,0.3,0.4,0.4l0.5,0.3l-0.6,0.2c-0.6,0.2-1,0.7-1.1,1.3l-0.7,4.6h-1.2c-0.9,0-1.7,0.8-1.7,1.7s0.8,1.7,1.7,1.7h8.2
	l1.2,2.2c0.2,0.4,0.6,0.6,1,0.6h3.2c0.7,0,1.2-0.5,1.2-1.2l0,0C278.4,53.7,277.9,53.1,277.2,53.1C277.3,53.1,277.2,53.1,277.2,53.1z
	 M273.9,49.9c0.1-0.2,0.2-0.4,0.4-0.5l0.5-0.3c0.1-0.1,0.2-0.1,0.4-0.1c0.1,0,0.2,0,0.2,0c0.2,0.1,0.4,0.2,0.5,0.4l0.3,0.5
	c0.1,0.2,0.1,0.4,0.1,0.6c-0.1,0.2-0.2,0.4-0.4,0.5l-0.5,0.3c-0.1,0.1-0.2,0.1-0.4,0.1c-0.1,0-0.2,0-0.2,0c-0.2-0.1-0.4-0.2-0.5-0.4
	l-0.3-0.5C273.8,50.4,273.8,50.1,273.9,49.9L273.9,49.9z M266.8,42.1c-0.1-0.2-0.2-0.4-0.1-0.6l0.1-0.6c0.1-0.4,0.4-0.7,0.8-0.7h0.1
	l0.6,0.1c0.4,0.1,0.7,0.5,0.7,0.9l-0.1,0.6c0,0.2-0.1,0.4-0.3,0.5c-0.1,0.1-0.3,0.2-0.5,0.1H268l-0.6-0.1
	C267.1,42.4,266.9,42.3,266.8,42.1z M266.2,44.8c0.1-0.5,0.5-0.9,1.1-0.9h0.2c0.2,0,0.4,0.1,0.5,0.2l0,0l0,0l3.7,3.5
	c0.2,0.2,0.2,0.6,0,0.8l0,0c-0.1,0.1-0.3,0.2-0.4,0.2s-0.3-0.1-0.4-0.2l-2.3-2.2c-0.1-0.1-0.1-0.1-0.2-0.1h-0.1
	c-0.1,0-0.2,0.1-0.2,0.2l-0.4,2.9h-2.2L266.2,44.8z M270.9,49.3h-2.7l0.3-2.2L270.9,49.3z M277.2,54.9H274c-0.2,0-0.4-0.1-0.5-0.3
	l-1.3-2.4c-0.1-0.1-0.2-0.2-0.3-0.1h-8.4c-0.6,0-1.1-0.5-1.1-1.1s0.5-1.1,1.1-1.1h8c0.4,0,0.7,0.2,0.9,0.5l0,0v0.1l1.8,3.1
	c0.1,0.1,0.2,0.2,0.3,0.1h2.7c0.3,0,0.6,0.3,0.6,0.6C277.7,54.6,277.5,54.9,277.2,54.9L277.2,54.9z"/>
<path class="st10" d="M343.8,85.4c-4.4,0-8,3.5-8,7.9s3.5,8,7.9,8s8-3.5,8-7.9l0,0C351.7,89,348.1,85.4,343.8,85.4z M349,97.8
	l-2.2-2.2c1.1-0.9,2.4-1.5,3.8-1.6C350.4,95.3,349.9,96.7,349,97.8z M337,93.9c1.7-0.1,3.3-0.8,4.6-1.9l1.4,1.4l-4.4,4.4
	C337.6,96.7,337.1,95.3,337,93.9L337,93.9z M338.6,88.9l2.2,2.2c-1.1,0.9-2.4,1.5-3.8,1.6C337.1,91.3,337.6,90,338.6,88.9
	L338.6,88.9z M344.3,86.5c1.4,0.1,2.8,0.7,3.9,1.6l-4.4,4.4l-1.4-1.4C343.5,89.8,344.2,88.2,344.3,86.5L344.3,86.5z M341.6,90.3
	l-2.3-2.3c1.1-0.9,2.4-1.5,3.8-1.6C343.1,87.9,342.5,89.3,341.6,90.3L341.6,90.3z M343.8,94.1l1.4,1.4c-1.1,1.3-1.8,2.9-1.9,4.6
	c-1.4-0.1-2.8-0.7-3.9-1.6L343.8,94.1z M346,96.3l2.2,2.2c-1.1,0.9-2.4,1.5-3.8,1.6C344.5,98.7,345,97.4,346,96.3L346,96.3z
	 M346,94.7l-1.4-1.4l4.4-4.4c0.9,1.1,1.5,2.5,1.6,3.9C348.9,92.9,347.2,93.6,346,94.7L346,94.7z"/>
<path class="st10" d="M104.4,55.3L104.4,55.3l0.9-1.7c0.3-0.6,0.1-1.4-0.5-1.7c-0.3-0.2-0.6-0.2-0.9-0.1c-0.1-0.3-0.3-0.6-0.6-0.7
	c-0.6-0.3-1.4-0.1-1.7,0.5l-1,1.7l-5.8-3.2l1-1.7c0.3-0.6,0.1-1.4-0.5-1.7c-0.3-0.2-0.6-0.2-0.9-0.1c-0.1-0.3-0.3-0.6-0.6-0.7
	c-0.6-0.3-1.4-0.1-1.7,0.5L91,48h-0.1c-0.7-0.3-1.5,0-1.8,0.7c-0.3,0.6-0.1,1.4,0.5,1.7h0.1l-1,1.7c-0.3,0.6-0.1,1.4,0.5,1.7l0,0
	c0.7-0.2,1.3,0.2,1.5,0.8c0.6,0.3,1.4,0.1,1.7-0.5l1-1.7l5.8,3.2l-1,1.7c-0.3,0.6-0.1,1.4,0.5,1.7c0.3,0.2,0.6,0.2,0.9,0.1
	c0.1,0.3,0.3,0.6,0.6,0.7c0.6,0.3,1.4,0.1,1.7-0.5l1-1.7h0.1c0.7,0.3,1.5,0.1,1.9-0.6C105.2,56.5,105,55.7,104.4,55.3z M90.1,49.7
	L90.1,49.7c-0.4-0.2-0.5-0.5-0.3-0.8s0.5-0.4,0.8-0.2h0.1L90.1,49.7z M90.3,52.9c-0.1,0.2-0.4,0.3-0.6,0.2s-0.3-0.4-0.2-0.6l1.1-2.1
	l2.1-3.8c0.1-0.2,0.4-0.3,0.6-0.2s0.3,0.4,0.2,0.7L90.3,52.9z M91.8,53.8c-0.1,0.2-0.4,0.3-0.7,0.2s-0.3-0.4-0.2-0.7l3.2-5.8
	c0.1-0.2,0.4-0.3,0.6-0.2s0.3,0.4,0.2,0.7L91.8,53.8z M99.6,55l-5.8-3.2l0.6-1l5.8,3.2L99.6,55z M99.8,58.2
	c-0.1,0.2-0.4,0.3-0.6,0.2S98.9,58,99,57.8l1.1-2.1l2.1-3.8c0.1-0.2,0.4-0.3,0.6-0.2s0.3,0.4,0.2,0.6L99.8,58.2z M101.4,59.1
	c-0.1,0.2-0.4,0.3-0.6,0.2s-0.3-0.4-0.2-0.6l0,0l3.2-5.9c0.1-0.2,0.4-0.3,0.6-0.2s0.3,0.4,0.2,0.7L101.4,59.1z M103.5,57.1
	L103.5,57.1l0.5-1h0.1c0.3,0.2,0.4,0.5,0.2,0.8C104.1,57.1,103.8,57.2,103.5,57.1z"/>
<g>
	<path class="st8" d="M359.4,140.5c0-2.1-1.1-4-3-4.9l-1.2-0.5L199,68.1c-12.7-5.5-27.1-5.5-39.8,0L3.7,134.8
		c-0.2,0.1-0.3,0.2-0.5,0.3c-1.7,0.9-2.8,2.7-2.8,4.7V190h359V140.5z"/>
</g>
</svg>
