<?xml version="1.0" encoding="utf-8"?>
<!-- Generator: Adobe Illustrator 24.1.2, SVG Export Plug-In . SVG Version: 6.00 Build 0)  -->
<svg version="1.1" id="Слой_1" xmlns="http://www.w3.org/2000/svg" xmlns:xlink="http://www.w3.org/1999/xlink" x="0px" y="0px"
	 viewBox="0 0 50 50" style="enable-background:new 0 0 50 50;" xml:space="preserve">
<style type="text/css">
	.st0{fill:#0072B9;}
</style>
<g>
	<path class="st0" d="M39.6,30.6c-1-1.1-2.4-1.7-3.8-1.8c-1.5,0-2.9,0.7-3.9,1.8l-3,3l-0.5-0.3c-0.4-0.2-0.7-0.3-1-0.5
		c-3.2-2.1-6-4.7-8.4-7.7c-1-1.2-1.9-2.6-2.6-4c0.6-0.6,1.2-1.2,1.8-1.8l1.2-1.2c1.1-0.9,1.7-2.2,1.8-3.6s-0.4-2.7-1.3-3.8
		c-0.2-0.2-0.3-0.4-0.5-0.5l-3.8-3.8c-0.6-0.7-1.3-1.3-2-2c-1-1-2.3-1.6-3.8-1.6C8.4,2.9,7,3.5,6,4.5L2.5,8.1C1,9.4,0.2,11.2,0,13.2
		c-0.1,2.7,0.4,5.4,1.4,7.9c1.9,4.9,4.6,9.4,8,13.3c4.5,5.4,10,9.7,16.3,12.8c2.9,1.5,6.1,2.4,9.4,2.7l0.8,0c2.3,0,4.6-1,6.2-2.7
		c0,0,0.1-0.1,0.1-0.1c0.5-0.6,1.1-1.2,1.8-1.7c0.4-0.4,0.9-0.9,1.3-1.3c1.1-1,1.7-2.4,1.7-4c0-1.5-0.7-2.9-1.7-3.9L39.6,30.6z
		 M42.9,41.1c-0.1,0.1-0.2,0.2-0.3,0.3c0,0-0.1,0.1-0.1,0.1c-0.4,0.4-0.8,0.8-1.2,1.2c-0.7,0.7-1.4,1.4-2,2.1
		c-0.9,0.9-2.1,1.5-3.3,1.5l-0.2,0l-0.4,0c-2.8-0.3-5.4-1.1-7.9-2.4c-5.9-2.8-11-6.8-15.1-11.9C9.2,28.4,6.7,24.3,5,19.7
		c-0.8-2-1.2-4.1-1.1-6.3c0.1-1,0.5-2,1.3-2.8l3.6-3.5C9,6.8,9.5,6.6,9.9,6.6c0.4,0,0.8,0.2,1.2,0.6c0.6,0.6,1.2,1.2,1.9,1.9
		l3.9,3.9c0.3,0.2,0.5,0.6,0.6,1c0.1,0.4,0,0.8-0.2,1.1c-0.1,0.1-0.2,0.3-0.4,0.4l-0.3,0.3c-0.2,0.2-0.4,0.4-0.6,0.6
		c-0.9,0.9-1.7,1.7-2.6,2.5c0,0-0.1,0.1-0.1,0.1c-0.7,0.7-1,1.8-0.6,2.7c0,0.1,0,0.1,0,0.2c0.9,2,2,3.9,3.4,5.6
		c2.6,3.3,5.8,6.2,9.3,8.5c0.4,0.3,0.8,0.5,1.3,0.7c0.4,0.2,0.7,0.3,0.9,0.5l0.2,0.1c0.4,0.2,0.8,0.3,1.3,0.3c0.7,0,1.4-0.3,1.9-0.9
		l3.6-3.5c0.3-0.4,0.8-0.6,1.2-0.6c0.4,0,0.9,0.2,1.2,0.6l5.8,5.7C43.3,39.4,43.4,40.4,42.9,41.1z"/>
	<path class="st0" d="M26.9,12.6c5.4,0.9,9.6,5.1,10.5,10.5c0.2,0.9,0.9,1.6,1.9,1.6l0.3,0c0.5-0.1,0.9-0.3,1.2-0.8
		c0.3-0.4,0.4-0.9,0.3-1.4C39.9,15.6,34.5,10.2,27.5,9c-0.1,0-0.2,0-0.3,0c-0.9,0-1.7,0.7-1.9,1.6C25.2,11.5,25.9,12.4,26.9,12.6z"
		/>
	<path class="st0" d="M50,22C48,10.8,39.2,2,27.9,0c-0.1,0-0.2,0-0.3,0c-0.9,0-1.7,0.7-1.9,1.6c-0.2,1,0.5,2,1.6,2.2
		C37,5.4,44.6,13,46.2,22.7c0.2,0.9,0.9,1.6,1.9,1.6h0.2c0,0,0,0,0.1,0C49.4,24.1,50.1,23.1,50,22z"/>
</g>
</svg>
