<svg id="Слой_1" data-name="Слой 1" xmlns="http://www.w3.org/2000/svg" viewBox="0 0 40.46 40.46"><defs><style>.cls-1{fill:#00b1d6;}</style></defs><path class="cls-1" d="M540.42,528.82a6.75,6.75,0,0,0-4.58,1.54,5.22,5.22,0,0,0-1.78,4h2.86a2.82,2.82,0,0,1,1-2.24,3.72,3.72,0,0,1,2.54-.84,3.24,3.24,0,0,1,2.48.92,3.62,3.62,0,0,1,.85,2.54,4.69,4.69,0,0,1-1.3,3.15l-2,2.09a7.34,7.34,0,0,0-1.58,2.36,9.16,9.16,0,0,0-.42,2.91h2.87a5.15,5.15,0,0,1,1.13-3.6L544.1,540a7.79,7.79,0,0,0,2.51-5.33,5.69,5.69,0,0,0-1.63-4.31A6.34,6.34,0,0,0,540.42,528.82Z" transform="translate(-520.1 -520.1)"/><path class="cls-1" d="M540,548.56a1.62,1.62,0,0,0-1.27.48,1.71,1.71,0,0,0-.42,1.18,1.52,1.52,0,0,0,1.69,1.62,1.55,1.55,0,0,0,1.7-1.62,1.67,1.67,0,0,0-.44-1.18A1.6,1.6,0,0,0,540,548.56Z" transform="translate(-520.1 -520.1)"/><path class="cls-1" d="M540.33,520.1a20.24,20.24,0,1,0,20.24,20.23A20.26,20.26,0,0,0,540.33,520.1Zm0,37.47a17.24,17.24,0,1,1,17.24-17.24A17.26,17.26,0,0,1,540.33,557.57Z" transform="translate(-520.1 -520.1)"/></svg>