<svg id="G_Pay_Acceptance_Mark" data-name="G Pay Acceptance Mark" xmlns="http://www.w3.org/2000/svg" viewBox="0 0 1336.44 205.2"><defs><style>.cls-1{fill:#fff;}</style></defs><path class="cls-1" d="M63.21,74.85v29.4l39.1,24.57,93.11-68.63a106.89,106.89,0,0,0-12.26-20.33l-81,59.36Z"/><path class="cls-1" d="M202.89,83.92,181,100.26v2a77.93,77.93,0,0,1-23.21,55.53h0a76.91,76.91,0,0,1-55.44,23.12h-4a77.92,77.92,0,0,1-51.49-23h0A77.47,77.47,0,0,1,23.7,102.57v-4h0a78.45,78.45,0,0,1,23-51.41h0A77.86,77.86,0,0,1,102.15,24a26.57,26.57,0,0,1,4,0h0a78.92,78.92,0,0,1,40.31,13.42l20-14.66A102.48,102.48,0,0,0,102.11,0h0A102.12,102.12,0,0,0,33.65,26.6h0A101.43,101.43,0,0,0,0,101.7a2.67,2.67,0,0,0,0,.4H0a101.79,101.79,0,0,0,26.53,68.34h0A101.79,101.79,0,0,0,101.79,204h.56a101.89,101.89,0,0,0,68.3-26.32h0a101.91,101.91,0,0,0,33.68-75.65A112.44,112.44,0,0,0,202.89,83.92Z"/><polygon class="cls-1" points="599.68 61.19 627.49 40.66 534.34 40.66 534.34 163.61 627.49 163.61 627.49 143.08 560.98 143.08 560.98 111.68 617.82 111.68 617.82 91.15 560.98 91.15 560.98 61.19 599.68 61.19"/><path class="cls-1" d="M483.37,61.19l28-20.53H405.12v123h55.52c31.08,0,49-14.1,49-38.67,0-23.52-16-36.43-45.57-36.43H431.76V61.19Zm-24,47.94c16.94,0,24.81,5.63,24.81,17.13s-8.47,16.9-24.81,16.9h-28V109.09Z"/><path class="cls-1" d="M702.86,40.66H652.37v123H679V128.82h24.21c32.23,0,52.4-16.9,52.4-43.94S735.33,40.66,702.86,40.66Zm-.6,67.63H678.69V61.19h23.57c17.13,0,26.4,8.47,26.4,23.57S719.39,108.29,702.26,108.29Z"/><path class="cls-1" d="M359.58,137.05a47.78,47.78,0,0,1-22.76,5.87c-24,0-41.34-17.1-41.34-40.67s17.13-40.66,41.34-40.66a40.39,40.39,0,0,1,24,7.63L380,55.16,378.72,54a63.33,63.33,0,0,0-42.94-14.9,68.64,68.64,0,0,0-47.17,17.5,60.69,60.69,0,0,0-18.54,44.9,63.9,63.9,0,0,0,18.54,45.69,66.89,66.89,0,0,0,47,18.1,63.34,63.34,0,0,0,47.17-18.82l-17.13-12.7Z"/><polygon class="cls-1" points="1158.65 91.35 1102.01 91.35 1102.01 40.86 1075.41 40.86 1075.41 163.81 1102.01 163.81 1102.01 113.52 1158.65 113.52 1158.65 163.81 1185.25 163.81 1185.25 40.86 1158.65 40.86 1158.65 91.35"/><path class="cls-1" d="M870,88.75H837.75V61.39h69.54V40.86H811.14v123h55.41c31.07,0,49-14.1,49-38.67C915.56,101.66,899.42,88.75,870,88.75Zm-4.43,54.77h-28V109.28h28c16.93,0,24.8,5.64,24.8,17.14S882.08,143.52,865.55,143.52Z"/><polygon class="cls-1" points="1282.04 100.02 1329.61 40.66 1299.17 40.66 1259.63 93.39 1244.93 93.39 1244.93 40.66 1218.33 40.66 1218.33 163.61 1244.93 163.61 1244.93 114.12 1261.47 114.12 1302.17 163.61 1336.44 163.61 1282.04 100.02"/><path class="cls-1" d="M978.63,40.86l-53,123h26.8l10.71-24.77h56.44l10.06,24.77h28l-51.92-123Zm-7.43,77.61,20.69-49.25,19.21,49.25Z"/></svg>