<?xml version="1.0" encoding="utf-8"?>
<!-- Generator: Adobe Illustrator 24.1.2, SVG Export Plug-In . SVG Version: 6.00 Build 0)  -->
<svg version="1.1" id="Слой_1" xmlns="http://www.w3.org/2000/svg" xmlns:xlink="http://www.w3.org/1999/xlink" x="0px" y="0px"
	 viewBox="0 0 50 50" style="enable-background:new 0 0 50 50;" xml:space="preserve">
<style type="text/css">
	.st0{fill:#9A9A9A;}
</style>
<path class="st0" d="M0,47.5c2.6-2.6,14.2-14.1,14.2-14.1l-0.8-1.1c-5.2-7.2-5.2-16.8,0-24C17.1,3.1,23.3,0,29.7,0
	c4.3,0,8.5,1.4,12,3.9c4.4,3.2,7.2,7.9,8.1,13.3c0.8,5.4-0.5,10.7-3.7,15.1c-3.8,5.2-9.9,8.3-16.4,8.3c-4.3,0-8.5-1.4-12-3.9
	l-1.1-0.8L2.5,50L0,47.5z M29.6,3.6c-4.5,0-8.7,1.7-11.8,4.9c-3.2,3.2-4.9,7.4-4.9,11.8c0,9.2,7.5,16.7,16.7,16.7
	c9.2,0,16.7-7.5,16.7-16.7C46.4,11.1,38.9,3.6,29.6,3.6L29.6,3.6z"/>
</svg>
