<svg id="Слой_1" data-name="Слой 1" xmlns="http://www.w3.org/2000/svg" viewBox="0 0 50 50"><defs><style>.cls-1{fill:#9a9a9a;}</style></defs><path class="cls-1" d="M50,31.12V18.88H42.86A18.85,18.85,0,0,0,42,16.7l5-5L38.35,3,33.3,8a18.85,18.85,0,0,0-2.18-.9V0H18.88V7.14A18.85,18.85,0,0,0,16.7,8l-5-5L3,11.65l5,5a18.85,18.85,0,0,0-.9,2.18H0V31.12H7.14A18.85,18.85,0,0,0,8,33.3L3,38.35,11.65,47l5-5a18.85,18.85,0,0,0,2.18.9V50H31.12V42.86A18.85,18.85,0,0,0,33.3,42l5.05,5L47,38.35,42,33.3a18.85,18.85,0,0,0,.9-2.18Zm-7.32,7.23-4.33,4.33-4.51-4.51-1,.58a15.82,15.82,0,0,1-3.63,1.51l-1.13.3v6.38H21.94V40.56l-1.13-.3a15.82,15.82,0,0,1-3.63-1.51l-1-.58-4.51,4.51L7.32,38.35l4.51-4.51-.58-1a16.08,16.08,0,0,1-1.51-3.64l-.3-1.13H3.06V21.94H9.44l.3-1.13a15.82,15.82,0,0,1,1.51-3.63l.58-1L7.32,11.65l4.33-4.33,4.51,4.51,1-.58a15.61,15.61,0,0,1,3.64-1.5l1.13-.31V3.06h6.12V9.44l1.13.3a15.82,15.82,0,0,1,3.63,1.51l1,.58,4.51-4.51,4.33,4.33-4.51,4.51.58,1a16.08,16.08,0,0,1,1.51,3.64l.3,1.13h6.38v6.12H40.56l-.3,1.13a15.82,15.82,0,0,1-1.51,3.63l-.58,1Z"/><path class="cls-1" d="M25,15.31A9.69,9.69,0,1,0,34.69,25,9.69,9.69,0,0,0,25,15.31Zm0,16.32A6.63,6.63,0,1,1,31.63,25,6.63,6.63,0,0,1,25,31.63Z"/></svg>