<svg id="Слой_1" data-name="Слой 1" xmlns="http://www.w3.org/2000/svg" viewBox="0 0 50 50"><defs><style>.cls-1{fill:#fff;}</style></defs><path class="cls-1" d="M49.92,19.26a1.53,1.53,0,0,0-1.24-1.05L33.27,16,26.38,2a1.54,1.54,0,0,0-2.76,0L16.73,16,1.32,18.21a1.54,1.54,0,0,0-.85,2.63L11.61,31.71,9,47.05a1.54,1.54,0,0,0,2.24,1.62L25,41.43l13.78,7.24a1.54,1.54,0,0,0,.72.18h0A1.54,1.54,0,0,0,41,47.31a1.5,1.5,0,0,0,0-.37L38.39,31.7,49.53,20.84A1.52,1.52,0,0,0,49.92,19.26ZM35.65,30.06a1.55,1.55,0,0,0-.44,1.37l2.24,13.06L25.72,38.32a1.59,1.59,0,0,0-1.44,0L12.55,44.49l2.24-13.06a1.55,1.55,0,0,0-.44-1.37l-9.5-9.25L18,18.9a1.52,1.52,0,0,0,1.16-.84L25,6.17l5.87,11.89A1.54,1.54,0,0,0,32,18.9l13.12,1.91Z"/></svg>